PathFileType	4	(X/Y/Z)	pose_F01_0-76.trc
DataRate	CameraRate	NumFrames	NumMarkers	Units	OrigDataRate	OrigDataStartFrame	OrigNumFrames
30	30	9	21	m	30	63	76
Frame#	Time	CHip			RHip			RKnee			RAnkle			RBigToe			RSmallToe			RHeel			LHip			LKnee			LAnkle			LBigToe			LSmallToe			LHeel			Neck			Nose			RShoulder			RElbow			RWrist			LShoulder			LElbow			LWrist			
		X1	Y1	Z1	X2	Y2	Z2	X3	Y3	Z3	X4	Y4	Z4	X5	Y5	Z5	X6	Y6	Z6	X7	Y7	Z7	X8	Y8	Z8	X9	Y9	Z9	X10	Y10	Z10	X11	Y11	Z11	X12	Y12	Z12	X13	Y13	Z13	X14	Y14	Z14	X15	Y15	Z15	X16	Y16	Z16	X17	Y17	Z17	X18	Y18	Z18	X19	Y19	Z19	X20	Y20	Z20	X21	Y21	Z21	
63	2.1	-0.22777589524370678	1.7867987112842816	-0.4293940584163355	-0.23487300306353967	1.7855386415235552	-0.36606058061545765	-0.2633389104065227	1.7020348459788157	-0.36552992140090423													-0.21614077513838642	1.739838078357371	-0.450743078521296	-0.24892851627819929	1.7058264642091547	-0.5004415998221132	-0.23550843022900994	1.5829109213471357	-0.6215982896202044	-0.17043469269240055	1.6048302690838636	-0.560959367799824	-0.16965004942403727	1.6103343917666064	-0.5539949703351221	-0.18412138578234377	1.6087663315614742	-0.5207462805266488	-0.2432837708654005	1.773567682910944	-0.3592943424275616	-0.2484736441391132	1.9318054996450311	-0.4394157044996935	-0.2492473486818634	1.8051692791595018	-0.3067848473237191	-0.25152766363827767	1.8441724001686692	-0.27077951525430766	-0.3057775118951616	1.66332210605364	-0.22228612921193974	-0.22841859420528227	1.783339348945179	-0.4463699238552717	-0.2276764912240759	1.7713542160518132	-0.32047258670183365	-0.24960773341131146	1.8010294776904845	-0.38348013434762906
64	2.1333333333333333	-0.22777589524370678	1.7867987112842816	-0.4293940584163355	-0.23487300306353967	1.7855386415235552	-0.36606058061545765	-0.2633389104065227	1.7020348459788157	-0.36552992140090423													-0.21614077513838642	1.739838078357371	-0.450743078521296	-0.24892851627819929	1.7058264642091547	-0.5004415998221132	-0.23550843022900994	1.5829109213471357	-0.6215982896202044	-0.16731536728349405	1.6030251474020831	-0.5637612243599653	-0.1665723316607144	1.6058394570659584	-0.5562467845542608	-0.18412138578234377	1.6087663315614742	-0.5207462805266488	-0.2432837708654005	1.773567682910944	-0.3592943424275616	-0.2484736441391132	1.9318054996450311	-0.4394157044996935	-0.2492473486818634	1.8051692791595018	-0.3067848473237191	-0.25152766363827767	1.8441724001686692	-0.27077951525430766	-0.3057775118951616	1.66332210605364	-0.22228612921193974	-0.22841859420528227	1.783339348945179	-0.4463699238552717	-0.22580042330556674	1.7698454793156846	-0.32243133714533756	-0.2483035753818974	1.7954847784816852	-0.3794469678895793
65	2.1666666666666665	-0.22777589524370678	1.7867987112842816	-0.4293940584163355	-0.23487300306353967	1.7855386415235552	-0.36606058061545765	-0.2633389104065227	1.7020348459788157	-0.36552992140090423													-0.21614077513838642	1.739838078357371	-0.450743078521296	-0.24892851627819929	1.7058264642091547	-0.5004415998221132	-0.23550843022900994	1.5829109213471357	-0.6215982896202044	-0.1673852090443154	1.605144253284392	-0.5599489191060296	-0.16732844080814735	1.6098290974233282	-0.5561118537610027	-0.18412138578234377	1.6087663315614742	-0.5207462805266488	-0.2432837708654005	1.773567682910944	-0.3592943424275616	-0.2484736441391132	1.9318054996450311	-0.4394157044996935	-0.2492473486818634	1.8051692791595018	-0.3067848473237191	-0.25152766363827767	1.8441724001686692	-0.27077951525430766	-0.3057775118951616	1.66332210605364	-0.22228612921193974	-0.22841859420528227	1.783339348945179	-0.4463699238552717	-0.22392435538705757	1.768336742579556	-0.3243900875888415	-0.24643119137312422	1.7931372754220418	-0.38120354761657477
66	2.2	-0.22777589524370678	1.7867987112842816	-0.4293940584163355	-0.23487300306353967	1.7855386415235552	-0.36606058061545765	-0.2633389104065227	1.7020348459788157	-0.36552992140090423													-0.21614077513838642	1.739838078357371	-0.450743078521296	-0.24892851627819929	1.7058264642091547	-0.5004415998221132	-0.23550843022900994	1.5829109213471357	-0.6215982896202044	-0.165400028859404	1.609156667713954	-0.562619298363992	-0.16522367024204532	1.6101882436786454	-0.5585532350601932	-0.18412138578234377	1.6087663315614742	-0.5207462805266488	-0.2432837708654005	1.773567682910944	-0.3592943424275616	-0.2484736441391132	1.9318054996450311	-0.4394157044996935	-0.2492473486818634	1.8051692791595018	-0.3067848473237191	-0.25152766363827767	1.8441724001686692	-0.27077951525430766	-0.3057775118951616	1.66332210605364	-0.22228612921193974	-0.22841859420528227	1.783339348945179	-0.4463699238552717	-0.22380403973780313	1.7659144813969627	-0.3258824026320196	-0.24638770128553106	1.7924081991765672	-0.381358036587144
67	2.2333333333333334	-0.22777589524370678	1.7867987112842816	-0.4293940584163355	-0.23487300306353967	1.7855386415235552	-0.36606058061545765	-0.2633389104065227	1.7020348459788157	-0.36552992140090423													-0.21614077513838642	1.739838078357371	-0.450743078521296	-0.24892851627819929	1.7058264642091547	-0.5004415998221132	-0.23550843022900994	1.5829109213471357	-0.6215982896202044	-0.16604444392144907	1.6071118108000535	-0.5660398955862727	-0.1653793008666123	1.6105030275212602	-0.5585335005497766	-0.18412138578234377	1.6087663315614742	-0.5207462805266488	-0.2432837708654005	1.773567682910944	-0.3592943424275616	-0.2484736441391132	1.9318054996450311	-0.4394157044996935	-0.2492473486818634	1.8051692791595018	-0.3067848473237191	-0.25152766363827767	1.8441724001686692	-0.27077951525430766	-0.3057775118951616	1.66332210605364	-0.22228612921193974	-0.22841859420528227	1.783339348945179	-0.4463699238552717	-0.22368372408854872	1.7634922202143695	-0.32737471767519777	-0.2476382702990929	1.7910166998100192	-0.3842718653254767
68	2.2666666666666666	-0.22777589524370678	1.7867987112842816	-0.4293940584163355	-0.23487300306353967	1.7855386415235552	-0.36606058061545765	-0.2633389104065227	1.7020348459788157	-0.36552992140090423													-0.21614077513838642	1.739838078357371	-0.450743078521296	-0.24892851627819929	1.7058264642091547	-0.5004415998221132	-0.23550843022900994	1.5829109213471357	-0.6215982896202044	-0.1704247243902002	1.6090954773134234	-0.5706192225323413	-0.16768351758421068	1.6126247969159195	-0.5651319110256271	-0.18412138578234377	1.6087663315614742	-0.5207462805266488	-0.2432837708654005	1.773567682910944	-0.3592943424275616	-0.2484736441391132	1.9318054996450311	-0.4394157044996935	-0.2492473486818634	1.8051692791595018	-0.3067848473237191	-0.25152766363827767	1.8441724001686692	-0.27077951525430766	-0.3057775118951616	1.66332210605364	-0.22228612921193974	-0.22841859420528227	1.783339348945179	-0.4463699238552717	-0.2235634084392943	1.7610699590317762	-0.32886703271837586	-0.24659514833549484	1.7877306955807655	-0.3806684500592984
69	2.3	-0.22777589524370678	1.7867987112842816	-0.4293940584163355	-0.23487300306353967	1.7855386415235552	-0.36606058061545765	-0.2633389104065227	1.7020348459788157	-0.36552992140090423													-0.21614077513838642	1.739838078357371	-0.450743078521296	-0.24892851627819929	1.7058264642091547	-0.5004415998221132	-0.23550843022900994	1.5829109213471357	-0.6215982896202044	-0.1654152664390065	1.6080040062391563	-0.5711010390742506	-0.16209132180523866	1.6108307256146783	-0.5664339535767593	-0.18412138578234377	1.6087663315614742	-0.5207462805266488	-0.2432837708654005	1.773567682910944	-0.3592943424275616	-0.2484736441391132	1.9318054996450311	-0.4394157044996935	-0.2492473486818634	1.8051692791595018	-0.3067848473237191	-0.25152766363827767	1.8441724001686692	-0.27077951525430766	-0.5503408727326528	1.6810740132736033	-0.9007381244830042	-0.22841859420528227	1.783339348945179	-0.4463699238552717	-0.22344309279003985	1.758647697849183	-0.33035934776155396	-0.24553570108988781	1.7854753168606738	-0.376829622993085
70	2.3333333333333335	-0.22777589524370678	1.7867987112842816	-0.4293940584163355	-0.23487300306353967	1.7855386415235552	-0.36606058061545765	-0.2633389104065227	1.7020348459788157	-0.36552992140090423													-0.21614077513838642	1.739838078357371	-0.450743078521296	-0.24892851627819929	1.7058264642091547	-0.5004415998221132	-0.23550843022900994	1.5829109213471357	-0.6215982896202044	-0.1695835717934776	1.609734998181527	-0.5669356285563403	-0.16867915966137606	1.6118802681345847	-0.5595308380555438	-0.18412138578234377	1.6087663315614742	-0.5207462805266488	-0.2432837708654005	1.773567682910944	-0.3592943424275616	-0.2484736441391132	1.9318054996450311	-0.4394157044996935	-0.2492473486818634	1.8051692791595018	-0.3067848473237191	-0.25152766363827767	1.8441724001686692	-0.27077951525430766	-0.5519420380049758	1.6834148316111424	-0.9058652351878124	-0.22841859420528227	1.783339348945179	-0.4463699238552717	-0.22332277714078544	1.7562254366665897	-0.3318516628047321	-0.2444762538442808	1.7832199381405822	-0.37299079592687157
71	2.3666666666666667	-0.22777589524370678	1.7867987112842816	-0.4293940584163355	-0.23487300306353967	1.7855386415235552	-0.36606058061545765	-0.2633389104065227	1.7020348459788157	-0.36552992140090423													-0.21614077513838642	1.739838078357371	-0.450743078521296	-0.24892851627819929	1.7058264642091547	-0.5004415998221132	-0.23550843022900994	1.5829109213471357	-0.6215982896202044	-0.16870190172880736	1.6103802327573347	-0.5636428485644319	-0.16592698116491245	1.6135037031171813	-0.558335323370186	-0.18412138578234377	1.6087663315614742	-0.5207462805266488	-0.2432837708654005	1.773567682910944	-0.3592943424275616	-0.2484736441391132	1.9318054996450311	-0.4394157044996935	-0.2492473486818634	1.8051692791595018	-0.3067848473237191	-0.25152766363827767	1.8441724001686692	-0.27077951525430766	-0.5535432032772988	1.6857556499486814	-0.9109923458926206	-0.22841859420528227	1.783339348945179	-0.4463699238552717	-0.223202461491531	1.7538031754839964	-0.3333439778479102	-0.24341680659867376	1.7809645594204906	-0.36915196886065815
